<svg viewBox="0 0 800 400" xmlns="http://www.w3.org/2000/svg" font-family="Poppins, Inter, sans-serif"
                style="width:100%;display:block;">
                <defs>
                  <linearGradient id="bg-cld" x1="0%" y1="0%" x2="100%" y2="100%">
                    <stop offset="0%" style="stop-color:#0f2460" />
                    <stop offset="100%" style="stop-color:#1d4ed8" />
                  </linearGradient>
                  <radialGradient id="glow-cld" cx="50%" cy="50%" r="50%">
                    <stop offset="0%" style="stop-color:#22d3ee;stop-opacity:0.15" />
                    <stop offset="100%" style="stop-color:#22d3ee;stop-opacity:0" />
                  </radialGradient>
                  <linearGradient id="acc-cld" x1="0%" y1="0%" x2="0%" y2="100%">
                    <stop offset="0%" style="stop-color:#22d3ee" />
                    <stop offset="100%" style="stop-color:#3b82f6" />
                  </linearGradient>
                </defs>
                <rect width="800" height="400" fill="url(#bg-cld)" />
                <g stroke="rgba(255,255,255,0.04)" stroke-width="1">
                  <line x1="0" y1="100" x2="800" y2="100" />
                  <line x1="0" y1="200" x2="800" y2="200" />
                  <line x1="0" y1="300" x2="800" y2="300" />
                  <line x1="200" y1="0" x2="200" y2="400" />
                  <line x1="400" y1="0" x2="400" y2="400" />
                  <line x1="600" y1="0" x2="600" y2="400" />
                </g>
                <ellipse cx="190" cy="190" rx="210" ry="180" fill="url(#glow-cld)" />
                <ellipse cx="660" cy="110" rx="160" ry="130" fill="url(#glow-cld)" />
                <circle cx="155" cy="178" r="46" fill="rgba(34,211,238,0.12)" stroke="rgba(34,211,238,0.25)"
                  stroke-width="1.5" />
                <circle cx="195" cy="163" r="56" fill="rgba(34,211,238,0.15)" stroke="rgba(34,211,238,0.28)"
                  stroke-width="1.5" />
                <circle cx="238" cy="174" r="40" fill="rgba(34,211,238,0.12)" stroke="rgba(34,211,238,0.22)"
                  stroke-width="1.5" />
                <rect x="120" y="186" width="158" height="38" rx="0" fill="rgba(15,36,96,0.5)" />
                <rect x="120" y="194" width="158" height="30" rx="8" fill="rgba(34,211,238,0.1)" />
                <text x="189" y="187" text-anchor="middle" font-size="11" font-weight="700" fill="#22d3ee"
                  letter-spacing="1">CLOUD</text>
                <circle cx="155" cy="176" r="14" fill="rgba(59,130,246,0.2)" stroke="rgba(59,130,246,0.4)"
                  stroke-width="1" />
                <text x="155" y="181" text-anchor="middle" font-size="12">💾</text>
                <circle cx="195" cy="168" r="14" fill="rgba(34,197,94,0.2)" stroke="rgba(34,197,94,0.4)"
                  stroke-width="1" />
                <text x="195" y="173" text-anchor="middle" font-size="12">⚙️</text>
                <circle cx="234" cy="176" r="14" fill="rgba(168,85,247,0.2)" stroke="rgba(168,85,247,0.4)"
                  stroke-width="1" />
                <text x="234" y="181" text-anchor="middle" font-size="12">🔗</text>
                <line x1="155" y1="224" x2="90" y2="280" stroke="rgba(34,211,238,0.3)" stroke-width="1"
                  stroke-dasharray="4,3" />
                <line x1="189" y1="224" x2="189" y2="280" stroke="rgba(34,211,238,0.3)" stroke-width="1"
                  stroke-dasharray="4,3" />
                <line x1="223" y1="224" x2="280" y2="280" stroke="rgba(34,211,238,0.3)" stroke-width="1"
                  stroke-dasharray="4,3" />
                <rect x="64" y="278" width="52" height="40" rx="7" fill="rgba(15,36,96,0.7)"
                  stroke="rgba(59,130,246,0.3)" stroke-width="1" />
                <text x="90" y="296" text-anchor="middle" font-size="13">💻</text>
                <text x="90" y="310" text-anchor="middle" font-size="8" fill="#93c5fd">Startup</text>
                <rect x="163" y="278" width="52" height="40" rx="7" fill="rgba(15,36,96,0.7)"
                  stroke="rgba(34,197,94,0.3)" stroke-width="1" />
                <text x="189" y="296" text-anchor="middle" font-size="13">📱</text>
                <text x="189" y="310" text-anchor="middle" font-size="8" fill="#93c5fd">Mobile App</text>
                <rect x="254" y="278" width="52" height="40" rx="7" fill="rgba(15,36,96,0.7)"
                  stroke="rgba(168,85,247,0.3)" stroke-width="1" />
                <text x="280" y="296" text-anchor="middle" font-size="13">🏢</text>
                <text x="280" y="310" text-anchor="middle" font-size="8" fill="#93c5fd">Enterprise</text>
                <path d="M55 230 Q48 215 55 200" fill="none" stroke="rgba(34,211,238,0.5)" stroke-width="1.5"
                  stroke-linecap="round" />
                <text x="38" y="217" font-size="8" fill="#22d3ee">scale</text>
                <rect x="340" y="60" width="142" height="26" rx="13" fill="rgba(34,211,238,0.15)"
                  stroke="rgba(34,211,238,0.35)" stroke-width="1" />
                <text x="411" y="78" text-anchor="middle" font-size="10" font-weight="700" fill="#22d3ee"
                  letter-spacing="1.5">CLOUD COMPUTING</text>
                <text x="340" y="130" font-size="34" font-weight="900" fill="#ffffff" letter-spacing="-1">Cloud
                  untuk</text>
                <text x="340" y="172" font-size="34" font-weight="900" fill="#ffffff" letter-spacing="-1">Startup</text>
                <rect x="340" y="182" width="176" height="48" rx="10" fill="rgba(34,211,238,0.12)"
                  stroke="rgba(34,211,238,0.3)" stroke-width="1.5" />
                <text x="428" y="214" text-anchor="middle" font-size="18" font-weight="900" fill="#22d3ee"
                  letter-spacing="-0.5">Scale-Up Cerdas</text>
                <text x="340" y="258" font-size="12" fill="#93c5fd">Strategi cloud yang tepat untuk</text>
                <text x="340" y="276" font-size="12" fill="#93c5fd">startup yang ingin tumbuh efisien.</text>
                <line x1="340" y1="294" x2="580" y2="294" stroke="rgba(255,255,255,0.1)" stroke-width="1" />
                <circle cx="350" cy="310" r="4" fill="#22d3ee" />
                <text x="362" y="315" font-size="11" fill="#93c5fd">Cloud</text>
                <circle cx="416" cy="310" r="4" fill="#60a5fa" />
                <text x="428" y="315" font-size="11" fill="#93c5fd">6 min read</text>
                <circle cx="498" cy="310" r="4" fill="#a78bfa" />
                <text x="510" y="315" font-size="11" fill="#93c5fd">Avenixa Labs</text>
                <rect x="630" y="56" width="148" height="54" rx="12" fill="rgba(255,255,255,0.05)"
                  stroke="rgba(34,211,238,0.2)" stroke-width="1" />
                <rect x="630" y="56" width="3" height="54" rx="2" fill="url(#acc-cld)" />
                <circle cx="655" cy="83" r="14" fill="rgba(34,211,238,0.12)" stroke="rgba(34,211,238,0.25)"
                  stroke-width="1" />
                <text x="655" y="88" text-anchor="middle" font-size="13">☁️</text>
                <text x="675" y="79" font-size="11" font-weight="700" fill="#ffffff">IaaS</text>
                <text x="675" y="95" font-size="9" fill="#93c5fd">Infrastruktur fleksibel</text>
                <rect x="630" y="120" width="148" height="54" rx="12" fill="rgba(255,255,255,0.05)"
                  stroke="rgba(34,197,94,0.2)" stroke-width="1" />
                <rect x="630" y="120" width="3" height="54" rx="2" fill="#22c55e" />
                <circle cx="655" cy="147" r="14" fill="rgba(34,197,94,0.12)" stroke="rgba(34,197,94,0.25)"
                  stroke-width="1" />
                <text x="655" y="152" text-anchor="middle" font-size="13">🚀</text>
                <text x="675" y="143" font-size="11" font-weight="700" fill="#ffffff">PaaS</text>
                <text x="675" y="159" font-size="9" fill="#93c5fd">Platform siap deploy</text>
                <rect x="630" y="184" width="148" height="54" rx="12" fill="rgba(255,255,255,0.05)"
                  stroke="rgba(99,102,241,0.2)" stroke-width="1" />
                <rect x="630" y="184" width="3" height="54" rx="2" fill="#6366f1" />
                <circle cx="655" cy="211" r="14" fill="rgba(99,102,241,0.12)" stroke="rgba(99,102,241,0.25)"
                  stroke-width="1" />
                <text x="655" y="216" text-anchor="middle" font-size="13">🖥️</text>
                <text x="675" y="207" font-size="11" font-weight="700" fill="#ffffff">SaaS</text>
                <text x="675" y="223" font-size="9" fill="#93c5fd">Software siap pakai</text>
                <rect x="630" y="248" width="148" height="54" rx="12" fill="rgba(255,255,255,0.05)"
                  stroke="rgba(251,191,36,0.2)" stroke-width="1" />
                <rect x="630" y="248" width="3" height="54" rx="2" fill="#f59e0b" />
                <circle cx="655" cy="275" r="14" fill="rgba(251,191,36,0.12)" stroke="rgba(251,191,36,0.25)"
                  stroke-width="1" />
                <text x="655" y="280" text-anchor="middle" font-size="13">📈</text>
                <text x="675" y="271" font-size="11" font-weight="700" fill="#ffffff">Auto-Scaling</text>
                <text x="675" y="287" font-size="9" fill="#93c5fd">Bayar sesuai pakai</text>
                <rect x="630" y="312" width="148" height="54" rx="12" fill="rgba(255,255,255,0.05)"
                  stroke="rgba(236,72,153,0.2)" stroke-width="1" />
                <rect x="630" y="312" width="3" height="54" rx="2" fill="#ec4899" />
                <circle cx="655" cy="339" r="14" fill="rgba(236,72,153,0.12)" stroke="rgba(236,72,153,0.25)"
                  stroke-width="1" />
                <text x="655" y="344" text-anchor="middle" font-size="13">🌐</text>
                <text x="675" y="335" font-size="11" font-weight="700" fill="#ffffff">Multi-Region</text>
                <text x="675" y="351" font-size="9" fill="#93c5fd">CDN &amp; latency rendah</text>
                <rect x="50" y="338" width="548" height="42" rx="10" fill="rgba(255,255,255,0.04)"
                  stroke="rgba(255,255,255,0.07)" stroke-width="1" />
                <text x="120" y="363" text-anchor="middle" font-size="22" font-weight="900" fill="#22d3ee">60%</text>
                <text x="120" y="375" text-anchor="middle" font-size="9" fill="#93c5fd">Hemat biaya server</text>
                <line x1="196" y1="344" x2="196" y2="374" stroke="rgba(255,255,255,0.08)" stroke-width="1" />
                <text x="285" y="363" text-anchor="middle" font-size="22" font-weight="900" fill="#60a5fa">99.9%</text>
                <text x="285" y="375" text-anchor="middle" font-size="9" fill="#93c5fd">Uptime SLA</text>
                <line x1="384" y1="344" x2="384" y2="374" stroke="rgba(255,255,255,0.08)" stroke-width="1" />
                <text x="466" y="363" text-anchor="middle" font-size="22" font-weight="900" fill="#a78bfa">∞
                  Scale</text>
                <text x="466" y="375" text-anchor="middle" font-size="9" fill="#93c5fd">Tanpa batas kapasitas</text>
                <line x1="544" y1="344" x2="544" y2="374" stroke="rgba(255,255,255,0.08)" stroke-width="1" />
                <rect x="552" y="348" width="38" height="28" rx="6" fill="rgba(34,211,238,0.1)"
                  stroke="rgba(34,211,238,0.2)" stroke-width="1" />
                <text x="571" y="360" text-anchor="middle" font-size="8" font-weight="700" fill="#22d3ee">AVENIXA</text>
                <text x="571" y="371" text-anchor="middle" font-size="8" fill="#93c5fd">LABS</text>
              </svg>