<svg viewBox="0 0 800 400" xmlns="http://www.w3.org/2000/svg" font-family="Poppins, Inter, sans-serif"
                style="width:100%;display:block;">
                <defs>
                  <linearGradient id="bg-mob" x1="0%" y1="0%" x2="100%" y2="100%">
                    <stop offset="0%" style="stop-color:#0f2460" />
                    <stop offset="100%" style="stop-color:#1d4ed8" />
                  </linearGradient>
                  <radialGradient id="glow-mob" cx="50%" cy="50%" r="50%">
                    <stop offset="0%" style="stop-color:#22d3ee;stop-opacity:0.15" />
                    <stop offset="100%" style="stop-color:#22d3ee;stop-opacity:0" />
                  </radialGradient>
                  <linearGradient id="acc-mob" x1="0%" y1="0%" x2="0%" y2="100%">
                    <stop offset="0%" style="stop-color:#22d3ee" />
                    <stop offset="100%" style="stop-color:#3b82f6" />
                  </linearGradient>
                </defs>
                <rect width="800" height="400" fill="url(#bg-mob)" />
                <g stroke="rgba(255,255,255,0.04)" stroke-width="1">
                  <line x1="0" y1="100" x2="800" y2="100" />
                  <line x1="0" y1="200" x2="800" y2="200" />
                  <line x1="0" y1="300" x2="800" y2="300" />
                  <line x1="200" y1="0" x2="200" y2="400" />
                  <line x1="400" y1="0" x2="400" y2="400" />
                  <line x1="600" y1="0" x2="600" y2="400" />
                </g>
                <ellipse cx="200" cy="200" rx="200" ry="170" fill="url(#glow-mob)" />
                <ellipse cx="680" cy="100" rx="150" ry="120" fill="url(#glow-mob)" />
                <rect x="120" y="60" width="100" height="180" rx="14" fill="rgba(15,36,96,0.75)"
                  stroke="rgba(255,255,255,0.18)" stroke-width="1.5" />
                <rect x="128" y="74" width="84" height="140" rx="6" fill="rgba(30,58,138,0.8)" />
                <rect x="133" y="80" width="74" height="10" rx="3" fill="rgba(34,211,238,0.6)" />
                <rect x="133" y="96" width="50" height="6" rx="2" fill="rgba(255,255,255,0.3)" />
                <rect x="133" y="107" width="74" height="40" rx="5" fill="rgba(59,130,246,0.2)"
                  stroke="rgba(59,130,246,0.3)" stroke-width="1" />
                <rect x="137" y="113" width="42" height="5" rx="2" fill="rgba(255,255,255,0.4)" />
                <rect x="137" y="123" width="62" height="4" rx="2" fill="rgba(255,255,255,0.2)" />
                <rect x="137" y="132" width="50" height="4" rx="2" fill="rgba(255,255,255,0.15)" />
                <rect x="133" y="153" width="35" height="22" rx="4" fill="rgba(34,211,238,0.2)"
                  stroke="rgba(34,211,238,0.4)" stroke-width="1" />
                <rect x="174" y="153" width="33" height="22" rx="4" fill="rgba(99,102,241,0.2)"
                  stroke="rgba(99,102,241,0.3)" stroke-width="1" />
                <rect x="133" y="181" width="74" height="26" rx="4" fill="rgba(255,255,255,0.05)" />
                <rect x="137" y="186" width="56" height="4" rx="2" fill="rgba(255,255,255,0.2)" />
                <rect x="137" y="196" width="40" height="4" rx="2" fill="rgba(255,255,255,0.12)" />
                <rect x="152" y="228" width="36" height="4" rx="2" fill="rgba(255,255,255,0.3)" />
                <rect x="154" y="68" width="32" height="6" rx="3" fill="rgba(15,36,96,0.9)" />
                <rect x="230" y="90" width="74" height="120" rx="10" fill="rgba(15,36,96,0.6)"
                  stroke="rgba(255,255,255,0.1)" stroke-width="1" />
                <rect x="236" y="100" width="62" height="96" rx="4" fill="rgba(30,58,138,0.6)" />
                <rect x="240" y="106" width="54" height="7" rx="2" fill="rgba(34,211,238,0.4)" />
                <rect x="240" y="118" width="38" height="4" rx="2" fill="rgba(255,255,255,0.2)" />
                <rect x="240" y="127" width="54" height="30" rx="4" fill="rgba(59,130,246,0.15)"
                  stroke="rgba(59,130,246,0.2)" stroke-width="1" />
                <rect x="244" y="133" width="30" height="4" rx="2" fill="rgba(255,255,255,0.25)" />
                <rect x="244" y="142" width="44" height="4" rx="2" fill="rgba(255,255,255,0.12)" />
                <rect x="240" y="163" width="24" height="24" rx="3" fill="rgba(34,211,238,0.12)"
                  stroke="rgba(34,211,238,0.25)" stroke-width="1" />
                <rect x="270" y="163" width="24" height="24" rx="3" fill="rgba(251,191,36,0.12)"
                  stroke="rgba(251,191,36,0.25)" stroke-width="1" />
                <circle cx="54" cy="200" r="18" fill="rgba(34,211,238,0.1)" stroke="rgba(34,211,238,0.3)"
                  stroke-width="1" />
                <text x="54" y="205" text-anchor="middle" font-size="10" fill="#22d3ee">📱</text>
                <line x1="72" y1="200" x2="120" y2="200" stroke="rgba(34,211,238,0.3)" stroke-width="1"
                  stroke-dasharray="4,2" />
                <text x="185" y="268" text-anchor="middle" font-size="10" font-weight="700"
                  fill="#22d3ee">RESPONSIVE</text>
                <text x="403" y="78" text-anchor="middle" font-size="10" font-weight="700" fill="#22d3ee"
                  letter-spacing="2">MOBILE DEV</text>
                <text x="340" y="128" font-size="36" font-weight="900" fill="#ffffff" letter-spacing="-1">Mobile-</text>
                <text x="340" y="170" font-size="36" font-weight="900" fill="#ffffff" letter-spacing="-1">First</text>
                <rect x="340" y="180" width="194" height="48" rx="10" fill="rgba(34,211,238,0.12)"
                  stroke="rgba(34,211,238,0.3)" stroke-width="1.5" />
                <text x="437" y="212" text-anchor="middle" font-size="26" font-weight="900" fill="#22d3ee"
                  letter-spacing="-0.5">Development</text>
                <text x="340" y="256" font-size="12" fill="#93c5fd">Standar baru pengembangan aplikasi</text>
                <text x="340" y="274" font-size="12" fill="#93c5fd">yang mengutamakan pengalaman mobile.</text>
                <line x1="340" y1="292" x2="580" y2="292" stroke="rgba(255,255,255,0.1)" stroke-width="1" />
                <circle cx="350" cy="308" r="4" fill="#22d3ee" />
                <text x="362" y="313" font-size="11" fill="#93c5fd">Mobile</text>
                <circle cx="420" cy="308" r="4" fill="#60a5fa" />
                <text x="432" y="313" font-size="11" fill="#93c5fd">6 min read</text>
                <circle cx="500" cy="308" r="4" fill="#a78bfa" />
                <text x="512" y="313" font-size="11" fill="#93c5fd">Avenixa Labs</text>
                <rect x="630" y="56" width="148" height="54" rx="12" fill="rgba(255,255,255,0.05)"
                  stroke="rgba(34,211,238,0.2)" stroke-width="1" />
                <rect x="630" y="56" width="3" height="54" rx="2" fill="url(#acc-mob)" />
                <circle cx="655" cy="83" r="14" fill="rgba(34,211,238,0.12)" stroke="rgba(34,211,238,0.25)"
                  stroke-width="1" />
                <text x="655" y="88" text-anchor="middle" font-size="13">📐</text>
                <text x="675" y="79" font-size="11" font-weight="700" fill="#ffffff">Fluid Layout</text>
                <text x="675" y="95" font-size="9" fill="#93c5fd">Grid &amp; flexbox</text>
                <rect x="630" y="120" width="148" height="54" rx="12" fill="rgba(255,255,255,0.05)"
                  stroke="rgba(99,102,241,0.2)" stroke-width="1" />
                <rect x="630" y="120" width="3" height="54" rx="2" fill="#6366f1" />
                <circle cx="655" cy="147" r="14" fill="rgba(99,102,241,0.12)" stroke="rgba(99,102,241,0.25)"
                  stroke-width="1" />
                <text x="655" y="152" text-anchor="middle" font-size="13">⚡</text>
                <text x="675" y="143" font-size="11" font-weight="700" fill="#ffffff">Performance</text>
                <text x="675" y="159" font-size="9" fill="#93c5fd">Lazy load &amp; cache</text>
                <rect x="630" y="184" width="148" height="54" rx="12" fill="rgba(255,255,255,0.05)"
                  stroke="rgba(34,197,94,0.2)" stroke-width="1" />
                <rect x="630" y="184" width="3" height="54" rx="2" fill="#22c55e" />
                <circle cx="655" cy="211" r="14" fill="rgba(34,197,94,0.12)" stroke="rgba(34,197,94,0.25)"
                  stroke-width="1" />
                <text x="655" y="216" text-anchor="middle" font-size="13">👆</text>
                <text x="675" y="207" font-size="11" font-weight="700" fill="#ffffff">Touch-Friendly</text>
                <text x="675" y="223" font-size="9" fill="#93c5fd">Target tap 44px min</text>
                <rect x="630" y="248" width="148" height="54" rx="12" fill="rgba(255,255,255,0.05)"
                  stroke="rgba(251,191,36,0.2)" stroke-width="1" />
                <rect x="630" y="248" width="3" height="54" rx="2" fill="#f59e0b" />
                <circle cx="655" cy="275" r="14" fill="rgba(251,191,36,0.12)" stroke="rgba(251,191,36,0.25)"
                  stroke-width="1" />
                <text x="655" y="280" text-anchor="middle" font-size="13">📶</text>
                <text x="675" y="271" font-size="11" font-weight="700" fill="#ffffff">Offline-Ready</text>
                <text x="675" y="287" font-size="9" fill="#93c5fd">PWA &amp; service worker</text>
                <rect x="630" y="312" width="148" height="54" rx="12" fill="rgba(255,255,255,0.05)"
                  stroke="rgba(236,72,153,0.2)" stroke-width="1" />
                <rect x="630" y="312" width="3" height="54" rx="2" fill="#ec4899" />
                <circle cx="655" cy="339" r="14" fill="rgba(236,72,153,0.12)" stroke="rgba(236,72,153,0.25)"
                  stroke-width="1" />
                <text x="655" y="344" text-anchor="middle" font-size="13">♿</text>
                <text x="675" y="335" font-size="11" font-weight="700" fill="#ffffff">Accessibility</text>
                <text x="675" y="351" font-size="9" fill="#93c5fd">WCAG 2.1 compliant</text>
                <rect x="50" y="338" width="548" height="42" rx="10" fill="rgba(255,255,255,0.04)"
                  stroke="rgba(255,255,255,0.07)" stroke-width="1" />
                <text x="128" y="363" text-anchor="middle" font-size="22" font-weight="900" fill="#22d3ee">58%</text>
                <text x="128" y="375" text-anchor="middle" font-size="9" fill="#93c5fd">Traffic dari mobile</text>
                <line x1="200" y1="344" x2="200" y2="374" stroke="rgba(255,255,255,0.08)" stroke-width="1" />
                <text x="290" y="363" text-anchor="middle" font-size="22" font-weight="900" fill="#60a5fa">3×
                  Faster</text>
                <text x="290" y="375" text-anchor="middle" font-size="9" fill="#93c5fd">vs desktop-first approach</text>
                <line x1="390" y1="344" x2="390" y2="374" stroke="rgba(255,255,255,0.08)" stroke-width="1" />
                <text x="472" y="363" text-anchor="middle" font-size="22" font-weight="900" fill="#a78bfa">5
                  Prinsip</text>
                <text x="472" y="375" text-anchor="middle" font-size="9" fill="#93c5fd">Mobile-first design</text>
                <line x1="544" y1="344" x2="544" y2="374" stroke="rgba(255,255,255,0.08)" stroke-width="1" />
                <rect x="552" y="348" width="38" height="28" rx="6" fill="rgba(34,211,238,0.1)"
                  stroke="rgba(34,211,238,0.2)" stroke-width="1" />
                <text x="571" y="360" text-anchor="middle" font-size="8" font-weight="700" fill="#22d3ee">AVENIXA</text>
                <text x="571" y="371" text-anchor="middle" font-size="8" fill="#93c5fd">LABS</text>
              </svg>